<?xml version="1.0" encoding="UTF-8" standalone="no"?>
<svg width="270.933mm" height="184.679mm"
 xmlns="http://www.w3.org/2000/svg" xmlns:xlink="http://www.w3.org/1999/xlink"  version="1.2" baseProfile="tiny">
<desc>Created by EvoPdf</desc>
<defs>
</defs>
<g fill="none" stroke="black" stroke-width="1" fill-rule="evenodd" stroke-linecap="square" stroke-linejoin="bevel" >

<g fill="#000000" fill-opacity="1" stroke="#000000" stroke-opacity="1" stroke-width="1" stroke-linecap="square" stroke-linejoin="miter" stroke-miterlimit="2" transform="matrix(1,0,0,1,0,0)"
>
</g>

<g fill="#000000" fill-opacity="1" stroke="#000000" stroke-opacity="1" stroke-width="1" stroke-linecap="square" stroke-linejoin="miter" stroke-miterlimit="2" transform="matrix(1,0,0,1,0,0)"
>
</g>

<g fill="#000000" fill-opacity="1" stroke="#000000" stroke-opacity="1" stroke-width="1" stroke-linecap="square" stroke-linejoin="miter" stroke-miterlimit="2" transform="matrix(1,0,0,1,0,0)"
>
</g>

<g fill="#000000" fill-opacity="1" stroke="#000000" stroke-opacity="1" stroke-width="1" stroke-linecap="square" stroke-linejoin="miter" stroke-miterlimit="2" transform="matrix(1,0,0,1,0,0)"
>
</g>

<g fill="#000000" fill-opacity="1" stroke="#000000" stroke-opacity="1" stroke-width="1" stroke-linecap="square" stroke-linejoin="miter" stroke-miterlimit="2" transform="matrix(1.33331,0,0,1.33331,8,8)"
>
</g>

<g fill="#91e8ed" fill-opacity="1" stroke="none" transform="matrix(1.33331,0,0,1.33331,8,8)"
>
<path vector-effect="none" fill-rule="nonzero" d="M408,216 C461.02,216 504,258.98 504,312 L504,408 C504,461.02 461.02,504 408,504 C354.98,504 312,461.02 312,408 L312,312 C312,258.98 354.98,216 408,216 M408,216"/>
</g>

<g fill="#000000" fill-opacity="1" stroke="#000000" stroke-opacity="1" stroke-width="1" stroke-linecap="square" stroke-linejoin="miter" stroke-miterlimit="2" transform="matrix(1.33331,0,0,1.33331,8,8)"
>
</g>

<g fill="#00c3ff" fill-opacity="1" stroke="none" transform="matrix(1.33331,0,0,1.33331,8,8)"
>
<path vector-effect="none" fill-rule="nonzero" d="M408,216 C354.98,216 312,258.98 312,312 L312,328 L504,328 L504,312 C504,258.98 461.02,216 408,216 M408,216"/>
</g>

<g fill="#000000" fill-opacity="1" stroke="#000000" stroke-opacity="1" stroke-width="1" stroke-linecap="square" stroke-linejoin="miter" stroke-miterlimit="2" transform="matrix(1.33331,0,0,1.33331,8,8)"
>
</g>

<g fill="#ffea00" fill-opacity="1" stroke="none" transform="matrix(1.33331,0,0,1.33331,8,8)"
>
<path vector-effect="none" fill-rule="nonzero" d="M408,296 C416.836,296 424,303.164 424,312 L424,344 C424,352.836 416.836,360 408,360 C399.164,360 392,352.836 392,344 L392,312 C392,303.164 399.164,296 408,296 M408,296"/>
</g>

<g fill="#000000" fill-opacity="1" stroke="#000000" stroke-opacity="1" stroke-width="1" stroke-linecap="square" stroke-linejoin="miter" stroke-miterlimit="2" transform="matrix(1.33331,0,0,1.33331,8,8)"
>
</g>

<g fill="#ff8a80" fill-opacity="1" stroke="none" transform="matrix(1.33331,0,0,1.33331,8,8)"
>
<path vector-effect="none" fill-rule="nonzero" d="M40,232 L80,232 L80,408 L40,408 L40,232 M40,232"/>
</g>

<g fill="#000000" fill-opacity="1" stroke="#000000" stroke-opacity="1" stroke-width="1" stroke-linecap="square" stroke-linejoin="miter" stroke-miterlimit="2" transform="matrix(1.33331,0,0,1.33331,8,8)"
>
</g>

<g fill="#ffffff" fill-opacity="1" stroke="none" transform="matrix(1.33331,0,0,1.33331,8,8)"
>
<path vector-effect="none" fill-rule="nonzero" d="M80,232 L120,232 L120,408 L80,408 L80,232 M80,232"/>
</g>

<g fill="#000000" fill-opacity="1" stroke="#000000" stroke-opacity="1" stroke-width="1" stroke-linecap="square" stroke-linejoin="miter" stroke-miterlimit="2" transform="matrix(1.33331,0,0,1.33331,8,8)"
>
</g>

<g fill="#757575" fill-opacity="1" stroke="none" transform="matrix(1.33331,0,0,1.33331,8,8)"
>
<path vector-effect="none" fill-rule="nonzero" d="M80,496 L119.273,448 L40.7266,448 L80,496 M80,496"/>
</g>

<g fill="#000000" fill-opacity="1" stroke="#000000" stroke-opacity="1" stroke-width="1" stroke-linecap="square" stroke-linejoin="miter" stroke-miterlimit="2" transform="matrix(1.33331,0,0,1.33331,8,8)"
>
</g>

<g fill="#ffffff" fill-opacity="1" stroke="none" transform="matrix(1.33331,0,0,1.33331,8,8)"
>
<path vector-effect="none" fill-rule="nonzero" d="M8,232 L40,232 L40,408 L8,408 L8,232 M8,232"/>
</g>

<g fill="#000000" fill-opacity="1" stroke="#000000" stroke-opacity="1" stroke-width="1" stroke-linecap="square" stroke-linejoin="miter" stroke-miterlimit="2" transform="matrix(1.33331,0,0,1.33331,8,8)"
>
</g>

<g fill="#ffea00" fill-opacity="1" stroke="none" transform="matrix(1.33331,0,0,1.33331,8,8)"
>
<path vector-effect="none" fill-rule="nonzero" d="M8,232 L152,232 L152,200 L8,200 L8,232 M8,232"/>
</g>

<g fill="#000000" fill-opacity="1" stroke="#000000" stroke-opacity="1" stroke-width="1" stroke-linecap="square" stroke-linejoin="miter" stroke-miterlimit="2" transform="matrix(1.33331,0,0,1.33331,8,8)"
>
</g>

<g fill="#ffdecf" fill-opacity="1" stroke="none" transform="matrix(1.33331,0,0,1.33331,8,8)"
>
<path vector-effect="none" fill-rule="nonzero" d="M80,408 L8,408 L40.7266,448 L119.273,448 L152,408 L80,408 M80,408"/>
</g>

<g fill="#000000" fill-opacity="1" stroke="#000000" stroke-opacity="1" stroke-width="1" stroke-linecap="square" stroke-linejoin="miter" stroke-miterlimit="2" transform="matrix(1.33331,0,0,1.33331,8,8)"
>
</g>

<g fill="#91e8ed" fill-opacity="1" stroke="none" transform="matrix(1.33331,0,0,1.33331,8,8)"
>
<path vector-effect="none" fill-rule="nonzero" d="M80,104 C40.2344,104 8,136.234 8,176 L8,200 L152,200 L152,176 C152,136.234 119.766,104 80,104 M80,104"/>
</g>

<g fill="#000000" fill-opacity="1" stroke="#000000" stroke-opacity="1" stroke-width="1" stroke-linecap="square" stroke-linejoin="miter" stroke-miterlimit="2" transform="matrix(1.33331,0,0,1.33331,8,8)"
>
</g>

<g fill="#ff8a80" fill-opacity="1" stroke="none" transform="matrix(1.33331,0,0,1.33331,8,8)"
>
<path vector-effect="none" fill-rule="nonzero" d="M120,232 L152,232 L152,408 L120,408 L120,232 M120,232"/>
</g>

<g fill="#000000" fill-opacity="1" stroke="#000000" stroke-opacity="1" stroke-width="1" stroke-linecap="square" stroke-linejoin="miter" stroke-miterlimit="2" transform="matrix(1.33331,0,0,1.33331,8,8)"
>
</g>

<g fill="#ffffff" fill-opacity="1" stroke="none" transform="matrix(1.33331,0,0,1.33331,8,8)"
>
<path vector-effect="none" fill-rule="nonzero" d="M426.016,477.742 L422.016,462.258 C446.723,455.824 463.973,433.527 464,408 L480,408 C479.961,440.82 457.777,469.48 426.016,477.742 M426.016,477.742"/>
</g>

<g fill="#000000" fill-opacity="1" stroke="#000000" stroke-opacity="1" stroke-width="1" stroke-linecap="square" stroke-linejoin="miter" stroke-miterlimit="2" transform="matrix(1.33331,0,0,1.33331,8,8)"
>
</g>

<g fill="#000000" fill-opacity="1" stroke="none" transform="matrix(1.33331,0,0,1.33331,8,8)"
>
<path vector-effect="none" fill-rule="nonzero" d="M416,208.406 L416,152 C416,112.234 383.766,80 344,80 C304.234,80 272,112.234 272,152 L272,344 C272,366.09 254.09,384 232,384 C209.91,384 192,366.09 192,344 L192,60 C192,26.8633 165.137,0 132,0 C98.8633,0 72,26.8633 72,60 L72,96.4062 C31.1484,100.562 0.0507812,134.938 0,176 L0,410.855 L80,508.633 L160,410.855 L160,176 C159.949,134.938 128.852,100.562 88,96.4062 L88,60 C88,35.6992 107.699,16 132,16 C156.301,16 176,35.6992 176,60 L176,344 C176,374.93 201.07,400 232,400 C262.93,400 288,374.93 288,344 L288,152 C288,121.07 313.07,96 344,96 C374.93,96 400,121.07 400,152 L400,208.406 C345.879,212.613 304.082,257.715 304,312 L304,408 C304,465.438 350.562,512 408,512 C465.438,512 512,465.438 512,408 L512,312 C511.918,257.715 470.121,212.613 416,208.406 M16,240 L32,240 L32,400 L16,400 L16,240 M80,483.367 L57.6016,456 L102.398,456 L80,483.367 M115.48,440 L44.5195,440 L24.8789,416 L135.121,416 L115.48,440 M48,400 L48,240 L72,240 L72,400 L48,400 M88,400 L88,240 L112,240 L112,400 L88,400 M144,400 L128,400 L128,240 L144,240 L144,400 M144,224 L16,224 L16,208 L144,208 L144,224 M144,176 L144,192 L16,192 L16,176 C16,140.652 44.6523,112 80,112 C115.348,112 144,140.652 144,176 M408,304 C412.418,304 416,307.582 416,312 L416,344 C416,348.418 412.418,352 408,352 C403.582,352 400,348.418 400,344 L400,312 C400,307.582 403.582,304 408,304 M320,312 C320.059,266.531 354.723,228.578 400,224.406 L400,289.473 C390.445,292.852 384.043,301.867 384,312 L384,320 L320,320 L320,312 M496,408 C496,456.602 456.602,496 408,496 C359.398,496 320,456.602 320,408 L320,336 L384,336 L384,344 C384,357.254 394.746,368 408,368 C421.254,368 432,357.254 432,344 L432,336 L496,336 L496,408 M496,320 L432,320 L432,312 C431.957,301.867 425.555,292.852 416,289.473 L416,224.406 C461.277,228.578 495.941,266.531 496,312 L496,320 M496,320"/>
</g>

<g fill="#000000" fill-opacity="1" stroke="#000000" stroke-opacity="1" stroke-width="1" stroke-linecap="square" stroke-linejoin="miter" stroke-miterlimit="2" transform="matrix(1.33331,0,0,1.33331,8,8)"
>
</g>

<g fill="#000000" fill-opacity="1" stroke="none" transform="matrix(1.33331,0,0,1.33331,8,8)"
>
<path vector-effect="none" fill-rule="nonzero" d="M208,176 L224,176 L224,288 L208,288 L208,176 M208,176"/>
</g>

<g fill="#000000" fill-opacity="1" stroke="#000000" stroke-opacity="1" stroke-width="1" stroke-linecap="square" stroke-linejoin="miter" stroke-miterlimit="2" transform="matrix(1.33331,0,0,1.33331,8,8)"
>
</g>

<g fill="#000000" fill-opacity="1" stroke="none" transform="matrix(1.33331,0,0,1.33331,8,8)"
>
<path vector-effect="none" fill-rule="nonzero" d="M40,32 L56,32 L56,80 L40,80 L40,32 M40,32"/>
</g>

<g fill="#000000" fill-opacity="1" stroke="#000000" stroke-opacity="1" stroke-width="1" stroke-linecap="square" stroke-linejoin="miter" stroke-miterlimit="2" transform="matrix(1.33331,0,0,1.33331,8,8)"
>
</g>

<g fill="#000000" fill-opacity="1" stroke="none" transform="matrix(1.33331,0,0,1.33331,8,8)"
>
<path vector-effect="none" fill-rule="nonzero" d="M432,144 L448,144 L448,192 L432,192 L432,144 M432,144"/>
</g>

<g fill="#000000" fill-opacity="1" stroke="#000000" stroke-opacity="1" stroke-width="1" stroke-linecap="square" stroke-linejoin="miter" stroke-miterlimit="2" transform="matrix(1.33331,0,0,1.33331,8,8)"
>
</g>

<g fill="#000000" fill-opacity="1" stroke="#000000" stroke-opacity="1" stroke-width="1" stroke-linecap="square" stroke-linejoin="miter" stroke-miterlimit="2" transform="matrix(1.33331,0,0,1.33331,8,8)"
>
</g>

<g fill="#000000" fill-opacity="1" stroke="#000000" stroke-opacity="1" stroke-width="1" stroke-linecap="square" stroke-linejoin="miter" stroke-miterlimit="2" transform="matrix(1,0,0,1,0,0)"
>
</g>

<g fill="#000000" fill-opacity="1" stroke="#000000" stroke-opacity="1" stroke-width="1" stroke-linecap="square" stroke-linejoin="miter" stroke-miterlimit="2" transform="matrix(1,0,0,1,0,0)"
>
</g>

<g fill="#000000" fill-opacity="1" stroke="#000000" stroke-opacity="1" stroke-width="1" stroke-linecap="square" stroke-linejoin="miter" stroke-miterlimit="2" transform="matrix(1,0,0,1,0,0)"
>
</g>

<g fill="#000000" fill-opacity="1" stroke="#000000" stroke-opacity="1" stroke-width="1" stroke-linecap="square" stroke-linejoin="miter" stroke-miterlimit="2" transform="matrix(1,0,0,1,0,0)"
>
</g>

<g fill="#000000" fill-opacity="1" stroke="#000000" stroke-opacity="1" stroke-width="1" stroke-linecap="square" stroke-linejoin="miter" stroke-miterlimit="2" transform="matrix(1.33331,0,0,1.33331,8,8)"
>
</g>

<g fill="#000000" fill-opacity="1" stroke="#000000" stroke-opacity="1" stroke-width="1" stroke-linecap="square" stroke-linejoin="miter" stroke-miterlimit="2" transform="matrix(1,0,0,1,0,0)"
>
</g>

<g fill="#000000" fill-opacity="1" stroke="#000000" stroke-opacity="1" stroke-width="1" stroke-linecap="square" stroke-linejoin="miter" stroke-miterlimit="2" transform="matrix(1,0,0,1,0,0)"
>
</g>

<g fill="#000000" fill-opacity="1" stroke="#000000" stroke-opacity="1" stroke-width="1" stroke-linecap="square" stroke-linejoin="miter" stroke-miterlimit="2" transform="matrix(1,0,0,1,0,0)"
>
</g>

<g fill="#000000" fill-opacity="1" stroke="#000000" stroke-opacity="1" stroke-width="1" stroke-linecap="square" stroke-linejoin="miter" stroke-miterlimit="2" transform="matrix(1,0,0,1,0,0)"
>
</g>

<g fill="#000000" fill-opacity="1" stroke="#000000" stroke-opacity="1" stroke-width="1" stroke-linecap="square" stroke-linejoin="miter" stroke-miterlimit="2" transform="matrix(1,0,0,1,0,0)"
>
</g>

<g fill="#000000" fill-opacity="1" stroke="#000000" stroke-opacity="1" stroke-width="1" stroke-linecap="square" stroke-linejoin="miter" stroke-miterlimit="2" transform="matrix(1,0,0,1,0,0)"
>
</g>
</g>
</svg>
