<?xml version="1.0" encoding="UTF-8" standalone="no"?>
<svg width="270.933mm" height="184.15mm"
 xmlns="http://www.w3.org/2000/svg" xmlns:xlink="http://www.w3.org/1999/xlink"  version="1.2" baseProfile="tiny">
<desc>Created by EvoPdf</desc>
<defs>
</defs>
<g fill="none" stroke="black" stroke-width="1" fill-rule="evenodd" stroke-linecap="square" stroke-linejoin="bevel" >

<g fill="#000000" fill-opacity="1" stroke="#000000" stroke-opacity="1" stroke-width="1" stroke-linecap="square" stroke-linejoin="miter" stroke-miterlimit="2" transform="matrix(1,0,0,1,0,0)"
>
</g>

<g fill="#000000" fill-opacity="1" stroke="#000000" stroke-opacity="1" stroke-width="1" stroke-linecap="square" stroke-linejoin="miter" stroke-miterlimit="2" transform="matrix(1,0,0,1,0,0)"
>
</g>

<g fill="#000000" fill-opacity="1" stroke="#000000" stroke-opacity="1" stroke-width="1" stroke-linecap="square" stroke-linejoin="miter" stroke-miterlimit="2" transform="matrix(1,0,0,1,0,0)"
>
</g>

<g fill="#000000" fill-opacity="1" stroke="#000000" stroke-opacity="1" stroke-width="1" stroke-linecap="square" stroke-linejoin="miter" stroke-miterlimit="2" transform="matrix(1,0,0,1,0,0)"
>
</g>

<g fill="#000000" fill-opacity="1" stroke="#000000" stroke-opacity="1" stroke-width="1" stroke-linecap="square" stroke-linejoin="miter" stroke-miterlimit="2" transform="matrix(1.33239,0,0,1.33239,8,8.23982)"
>
</g>

<g fill="#ffffff" fill-opacity="1" stroke="none" transform="matrix(1.33239,0,0,1.33239,8,8.23982)"
>
<path vector-effect="none" fill-rule="nonzero" d="M499,328.18 C499,248.652 389.473,184.18 254.359,184.18 C119.25,184.18 9.71875,248.652 9.71875,328.18 C9.71875,407.711 119.25,472.18 254.359,472.18 C389.473,472.18 499,407.711 499,328.18 M499,328.18"/>
</g>

<g fill="#000000" fill-opacity="1" stroke="#000000" stroke-opacity="1" stroke-width="1" stroke-linecap="square" stroke-linejoin="miter" stroke-miterlimit="2" transform="matrix(1.33239,0,0,1.33239,8,8.23982)"
>
</g>

<g fill="#91e8ed" fill-opacity="1" stroke="none" transform="matrix(1.33239,0,0,1.33239,8,8.23982)"
>
<path vector-effect="none" fill-rule="nonzero" d="M366.359,328.18 C366.359,390.035 316.215,440.18 254.359,440.18 C192.504,440.18 142.359,390.035 142.359,328.18 C142.359,266.324 192.504,216.18 254.359,216.18 C316.215,216.18 366.359,266.324 366.359,328.18 M366.359,328.18"/>
</g>

<g fill="#000000" fill-opacity="1" stroke="#000000" stroke-opacity="1" stroke-width="1" stroke-linecap="square" stroke-linejoin="miter" stroke-miterlimit="2" transform="matrix(1.33239,0,0,1.33239,8,8.23982)"
>
</g>

<g fill="#ffea00" fill-opacity="1" stroke="none" transform="matrix(1.33239,0,0,1.33239,8,8.23982)"
>
<path vector-effect="none" fill-rule="nonzero" d="M302.359,328.18 C302.359,354.691 280.871,376.18 254.359,376.18 C227.852,376.18 206.359,354.691 206.359,328.18 C206.359,301.672 227.852,280.18 254.359,280.18 C280.871,280.18 302.359,301.672 302.359,328.18 M302.359,328.18"/>
</g>

<g fill="#000000" fill-opacity="1" stroke="#000000" stroke-opacity="1" stroke-width="1" stroke-linecap="square" stroke-linejoin="miter" stroke-miterlimit="2" transform="matrix(1.33239,0,0,1.33239,8,8.23982)"
>
</g>

<g fill="#91e8ed" fill-opacity="1" stroke="none" transform="matrix(1.33239,0,0,1.33239,8,8.23982)"
>
<path vector-effect="none" fill-rule="nonzero" d="M406.359,8.17969 L502.359,8.17969 L502.359,308.18 L454.359,384.18 L406.359,308.18 L406.359,8.17969 M406.359,8.17969"/>
</g>

<g fill="#000000" fill-opacity="1" stroke="#000000" stroke-opacity="1" stroke-width="1" stroke-linecap="square" stroke-linejoin="miter" stroke-miterlimit="2" transform="matrix(1.33239,0,0,1.33239,8,8.23982)"
>
</g>

<g fill="#00c3ff" fill-opacity="1" stroke="none" transform="matrix(1.33239,0,0,1.33239,8,8.23982)"
>
<path vector-effect="none" fill-rule="nonzero" d="M454.359,304.18 L470.359,292.18 L470.359,56.1797 L438.359,56.1797 L438.359,292.18 L454.359,304.18 M454.359,304.18"/>
</g>

<g fill="#000000" fill-opacity="1" stroke="#000000" stroke-opacity="1" stroke-width="1" stroke-linecap="square" stroke-linejoin="miter" stroke-miterlimit="2" transform="matrix(1.33239,0,0,1.33239,8,8.23982)"
>
</g>

<g fill="#ffea00" fill-opacity="1" stroke="none" transform="matrix(1.33239,0,0,1.33239,8,8.23982)"
>
<path vector-effect="none" fill-rule="nonzero" d="M406.359,8.17969 L406.359,56.1797 L502.359,56.1797 L502.359,8.17969 L406.359,8.17969 M406.359,8.17969"/>
</g>

<g fill="#000000" fill-opacity="1" stroke="#000000" stroke-opacity="1" stroke-width="1" stroke-linecap="square" stroke-linejoin="miter" stroke-miterlimit="2" transform="matrix(1.33239,0,0,1.33239,8,8.23982)"
>
</g>

<g fill="#50575e" fill-opacity="1" stroke="none" transform="matrix(1.33239,0,0,1.33239,8,8.23982)"
>
<path vector-effect="none" fill-rule="nonzero" d="M454.359,384.18 L484.672,336.18 L424.047,336.18 L454.359,384.18 M454.359,384.18"/>
</g>

<g fill="#000000" fill-opacity="1" stroke="#000000" stroke-opacity="1" stroke-width="1" stroke-linecap="square" stroke-linejoin="miter" stroke-miterlimit="2" transform="matrix(1.33239,0,0,1.33239,8,8.23982)"
>
</g>

<g fill="#ffdecf" fill-opacity="1" stroke="none" transform="matrix(1.33239,0,0,1.33239,8,8.23982)"
>
<path vector-effect="none" fill-rule="nonzero" d="M470.359,292.18 L454.359,304.18 L438.359,292.18 L406.359,308.18 L424.047,336.18 L484.672,336.18 L502.359,308.18 L470.359,292.18 M470.359,292.18"/>
</g>

<g fill="#000000" fill-opacity="1" stroke="#000000" stroke-opacity="1" stroke-width="1" stroke-linecap="square" stroke-linejoin="miter" stroke-miterlimit="2" transform="matrix(1.33239,0,0,1.33239,8,8.23982)"
>
</g>

<g fill="#00c3ff" fill-opacity="1" stroke="none" transform="matrix(1.33239,0,0,1.33239,8,8.23982)"
>
<path vector-effect="none" fill-rule="nonzero" d="M217.602,297.34 L168.633,256.242 C151.652,276.367 142.348,301.852 142.359,328.18 L206.359,328.18 C206.348,316.895 210.328,305.969 217.602,297.34 M217.602,297.34"/>
</g>

<g fill="#000000" fill-opacity="1" stroke="#000000" stroke-opacity="1" stroke-width="1" stroke-linecap="square" stroke-linejoin="miter" stroke-miterlimit="2" transform="matrix(1.33239,0,0,1.33239,8,8.23982)"
>
</g>

<g fill="#ffffff" fill-opacity="1" stroke="none" transform="matrix(1.33239,0,0,1.33239,8,8.23982)"
>
<path vector-effect="none" fill-rule="nonzero" d="M246.031,280.98 L234.93,218.012 C209.02,222.586 185.551,236.133 168.633,256.277 L217.602,297.371 C224.855,288.734 234.922,282.93 246.031,280.98 M246.031,280.98"/>
</g>

<g fill="#000000" fill-opacity="1" stroke="#000000" stroke-opacity="1" stroke-width="1" stroke-linecap="square" stroke-linejoin="miter" stroke-miterlimit="2" transform="matrix(1.33239,0,0,1.33239,8,8.23982)"
>
</g>

<g fill="#000000" fill-opacity="1" stroke="none" transform="matrix(1.33239,0,0,1.33239,8,8.23982)"
>
<path vector-effect="none" fill-rule="nonzero" d="M398.359,0.179688 L398.359,215.148 C354.664,189.617 304.965,176.168 254.359,176.18 C149.859,176.352 53.6133,233.004 2.73438,324.285 L0.550781,328.18 L2.73438,332.074 C44.8906,408.102 119.18,460.973 204.82,475.891 C290.465,490.809 378.254,466.172 443.633,408.875 L433.09,396.875 C371.93,450.469 289.973,473.824 209.75,460.516 C129.531,447.211 59.5,398.648 18.9219,328.18 C67.5742,244.148 157.258,192.344 254.359,192.18 C305.328,192.145 355.262,206.57 398.359,233.781 L398.359,310.5 L454.359,399.164 L510.359,310.5 L510.359,0.179688 L398.359,0.179688 M414.359,64.1797 L430.359,64.1797 L430.359,287.234 L414.359,295.234 L414.359,64.1797 M454.359,369.195 L438.559,344.18 L470.16,344.18 L454.359,369.195 M480.266,328.18 L428.457,328.18 L417.848,311.379 L437.559,301.547 L454.359,314.18 L471.16,301.547 L490.871,311.379 L480.266,328.18 M446.359,288.18 L446.359,64.1797 L462.359,64.1797 L462.359,288.18 L454.359,294.18 L446.359,288.18 M494.359,295.234 L478.359,287.234 L478.359,64.1797 L494.359,64.1797 L494.359,295.234 M494.359,48.1797 L414.359,48.1797 L414.359,16.1797 L494.359,16.1797 L494.359,48.1797 M494.359,48.1797"/>
</g>

<g fill="#000000" fill-opacity="1" stroke="#000000" stroke-opacity="1" stroke-width="1" stroke-linecap="square" stroke-linejoin="miter" stroke-miterlimit="2" transform="matrix(1.33239,0,0,1.33239,8,8.23982)"
>
</g>

<g fill="#000000" fill-opacity="1" stroke="none" transform="matrix(1.33239,0,0,1.33239,8,8.23982)"
>
<path vector-effect="none" fill-rule="nonzero" d="M134.359,328.18 C134.359,394.453 188.086,448.18 254.359,448.18 C320.633,448.18 374.359,394.453 374.359,328.18 C374.359,261.906 320.633,208.18 254.359,208.18 C188.117,208.254 134.434,261.938 134.359,328.18 M228.496,227.562 L236.863,275.02 C229.559,277.441 222.836,281.344 217.113,286.484 L180.145,255.461 C193.414,241.926 210.137,232.277 228.496,227.562 M254.359,288.18 C276.453,288.18 294.359,306.09 294.359,328.18 C294.359,350.27 276.453,368.18 254.359,368.18 C232.27,368.18 214.359,350.27 214.359,328.18 C214.387,306.098 232.281,288.207 254.359,288.18 M169.887,267.738 L206.816,298.73 C202.754,305.262 200.09,312.566 199,320.18 L150.77,320.18 C152.203,301.277 158.82,283.133 169.887,267.738 M358.359,328.18 C358.336,384.016 314.203,429.855 258.41,432.008 C202.617,434.156 155.09,391.848 150.77,336.18 L199,336.18 C203.27,365.77 230.031,386.785 259.789,383.922 C289.551,381.059 311.812,355.324 310.359,325.461 C308.91,295.602 284.258,272.145 254.359,272.18 C253.777,272.18 253.207,272.254 252.625,272.27 L244.23,224.691 C247.566,224.371 250.945,224.18 254.359,224.18 C311.77,224.246 358.293,270.77 358.359,328.18 M358.359,328.18"/>
</g>

<g fill="#000000" fill-opacity="1" stroke="#000000" stroke-opacity="1" stroke-width="1" stroke-linecap="square" stroke-linejoin="miter" stroke-miterlimit="2" transform="matrix(1.33239,0,0,1.33239,8,8.23982)"
>
</g>

<g fill="#000000" fill-opacity="1" stroke="none" transform="matrix(1.33239,0,0,1.33239,8,8.23982)"
>
<path vector-effect="none" fill-rule="nonzero" d="M285.559,494.578 L287.207,510.5 C362.066,502.66 431.777,468.73 484.137,414.66 L472.633,403.539 C422.895,454.906 356.672,487.137 285.559,494.578 M285.559,494.578"/>
</g>

<g fill="#000000" fill-opacity="1" stroke="#000000" stroke-opacity="1" stroke-width="1" stroke-linecap="square" stroke-linejoin="miter" stroke-miterlimit="2" transform="matrix(1.33239,0,0,1.33239,8,8.23982)"
>
</g>

<g fill="#000000" fill-opacity="1" stroke="none" transform="matrix(1.33239,0,0,1.33239,8,8.23982)"
>
<path vector-effect="none" fill-rule="nonzero" d="M137.449,183.723 L131.273,168.98 C79.3984,190.676 34.1328,225.613 0,270.293 L12.7617,279.996 C45.1797,237.543 88.1758,204.344 137.449,183.723 M137.449,183.723"/>
</g>

<g fill="#000000" fill-opacity="1" stroke="#000000" stroke-opacity="1" stroke-width="1" stroke-linecap="square" stroke-linejoin="miter" stroke-miterlimit="2" transform="matrix(1.33239,0,0,1.33239,8,8.23982)"
>
</g>

<g fill="#000000" fill-opacity="1" stroke="none" transform="matrix(1.33239,0,0,1.33239,8,8.23982)"
>
<path vector-effect="none" fill-rule="nonzero" d="M238.734,160.652 L237.984,144.652 C215.789,145.734 193.773,149.176 172.305,154.914 L176.414,170.371 C196.785,164.934 217.676,161.676 238.734,160.652 M238.734,160.652"/>
</g>

<g fill="#000000" fill-opacity="1" stroke="#000000" stroke-opacity="1" stroke-width="1" stroke-linecap="square" stroke-linejoin="miter" stroke-miterlimit="2" transform="matrix(1.33239,0,0,1.33239,8,8.23982)"
>
</g>

<g fill="#000000" fill-opacity="1" stroke="none" transform="matrix(1.33239,0,0,1.33239,8,8.23982)"
>
<path vector-effect="none" fill-rule="nonzero" d="M270.359,16.1797 L382.359,16.1797 L382.359,32.1797 L270.359,32.1797 L270.359,16.1797 M270.359,16.1797"/>
</g>

<g fill="#000000" fill-opacity="1" stroke="#000000" stroke-opacity="1" stroke-width="1" stroke-linecap="square" stroke-linejoin="miter" stroke-miterlimit="2" transform="matrix(1.33239,0,0,1.33239,8,8.23982)"
>
</g>

<g fill="#000000" fill-opacity="1" stroke="none" transform="matrix(1.33239,0,0,1.33239,8,8.23982)"
>
<path vector-effect="none" fill-rule="nonzero" d="M302.359,56.1797 L382.359,56.1797 L382.359,72.1797 L302.359,72.1797 L302.359,56.1797 M302.359,56.1797"/>
</g>

<g fill="#000000" fill-opacity="1" stroke="#000000" stroke-opacity="1" stroke-width="1" stroke-linecap="square" stroke-linejoin="miter" stroke-miterlimit="2" transform="matrix(1.33239,0,0,1.33239,8,8.23982)"
>
</g>

<g fill="#000000" fill-opacity="1" stroke="none" transform="matrix(1.33239,0,0,1.33239,8,8.23982)"
>
<path vector-effect="none" fill-rule="nonzero" d="M334.359,96.1797 L382.359,96.1797 L382.359,112.18 L334.359,112.18 L334.359,96.1797 M334.359,96.1797"/>
</g>

<g fill="#000000" fill-opacity="1" stroke="#000000" stroke-opacity="1" stroke-width="1" stroke-linecap="square" stroke-linejoin="miter" stroke-miterlimit="2" transform="matrix(1.33239,0,0,1.33239,8,8.23982)"
>
</g>

<g fill="#000000" fill-opacity="1" stroke="#000000" stroke-opacity="1" stroke-width="1" stroke-linecap="square" stroke-linejoin="miter" stroke-miterlimit="2" transform="matrix(1.33239,0,0,1.33239,8,8.23982)"
>
</g>

<g fill="#000000" fill-opacity="1" stroke="#000000" stroke-opacity="1" stroke-width="1" stroke-linecap="square" stroke-linejoin="miter" stroke-miterlimit="2" transform="matrix(1,0,0,1,0,0)"
>
</g>

<g fill="#000000" fill-opacity="1" stroke="#000000" stroke-opacity="1" stroke-width="1" stroke-linecap="square" stroke-linejoin="miter" stroke-miterlimit="2" transform="matrix(1,0,0,1,0,0)"
>
</g>

<g fill="#000000" fill-opacity="1" stroke="#000000" stroke-opacity="1" stroke-width="1" stroke-linecap="square" stroke-linejoin="miter" stroke-miterlimit="2" transform="matrix(1,0,0,1,0,0)"
>
</g>

<g fill="#000000" fill-opacity="1" stroke="#000000" stroke-opacity="1" stroke-width="1" stroke-linecap="square" stroke-linejoin="miter" stroke-miterlimit="2" transform="matrix(1,0,0,1,0,0)"
>
</g>

<g fill="#000000" fill-opacity="1" stroke="#000000" stroke-opacity="1" stroke-width="1" stroke-linecap="square" stroke-linejoin="miter" stroke-miterlimit="2" transform="matrix(1.33239,0,0,1.33239,8,8.23982)"
>
</g>

<g fill="#000000" fill-opacity="1" stroke="#000000" stroke-opacity="1" stroke-width="1" stroke-linecap="square" stroke-linejoin="miter" stroke-miterlimit="2" transform="matrix(1,0,0,1,0,0)"
>
</g>

<g fill="#000000" fill-opacity="1" stroke="#000000" stroke-opacity="1" stroke-width="1" stroke-linecap="square" stroke-linejoin="miter" stroke-miterlimit="2" transform="matrix(1,0,0,1,0,0)"
>
</g>

<g fill="#000000" fill-opacity="1" stroke="#000000" stroke-opacity="1" stroke-width="1" stroke-linecap="square" stroke-linejoin="miter" stroke-miterlimit="2" transform="matrix(1,0,0,1,0,0)"
>
</g>

<g fill="#000000" fill-opacity="1" stroke="#000000" stroke-opacity="1" stroke-width="1" stroke-linecap="square" stroke-linejoin="miter" stroke-miterlimit="2" transform="matrix(1,0,0,1,0,0)"
>
</g>

<g fill="#000000" fill-opacity="1" stroke="#000000" stroke-opacity="1" stroke-width="1" stroke-linecap="square" stroke-linejoin="miter" stroke-miterlimit="2" transform="matrix(1,0,0,1,0,0)"
>
</g>

<g fill="#000000" fill-opacity="1" stroke="#000000" stroke-opacity="1" stroke-width="1" stroke-linecap="square" stroke-linejoin="miter" stroke-miterlimit="2" transform="matrix(1,0,0,1,0,0)"
>
</g>
</g>
</svg>
