<?xml version="1.0" encoding="UTF-8" standalone="no"?>
<svg width="270.933mm" height="184.679mm"
 xmlns="http://www.w3.org/2000/svg" xmlns:xlink="http://www.w3.org/1999/xlink"  version="1.2" baseProfile="tiny">
<desc>Created by EvoPdf</desc>
<defs>
</defs>
<g fill="none" stroke="black" stroke-width="1" fill-rule="evenodd" stroke-linecap="square" stroke-linejoin="bevel" >

<g fill="#000000" fill-opacity="1" stroke="#000000" stroke-opacity="1" stroke-width="1" stroke-linecap="square" stroke-linejoin="miter" stroke-miterlimit="2" transform="matrix(1,0,0,1,0,0)"
>
</g>

<g fill="#000000" fill-opacity="1" stroke="#000000" stroke-opacity="1" stroke-width="1" stroke-linecap="square" stroke-linejoin="miter" stroke-miterlimit="2" transform="matrix(1,0,0,1,0,0)"
>
</g>

<g fill="#000000" fill-opacity="1" stroke="#000000" stroke-opacity="1" stroke-width="1" stroke-linecap="square" stroke-linejoin="miter" stroke-miterlimit="2" transform="matrix(1,0,0,1,0,0)"
>
</g>

<g fill="#000000" fill-opacity="1" stroke="#000000" stroke-opacity="1" stroke-width="1" stroke-linecap="square" stroke-linejoin="miter" stroke-miterlimit="2" transform="matrix(1,0,0,1,0,0)"
>
</g>

<g fill="#000000" fill-opacity="1" stroke="#000000" stroke-opacity="1" stroke-width="1" stroke-linecap="square" stroke-linejoin="miter" stroke-miterlimit="2" transform="matrix(1.33331,0,0,1.33331,8,10.6666)"
>
</g>

<g fill="#91e8ed" fill-opacity="1" stroke="none" transform="matrix(1.33331,0,0,1.33331,8,10.6666)"
>
<path vector-effect="none" fill-rule="nonzero" d="M56,508.551 L56,204.551 L256,76.5508 L456,204.551 L456,508.551 L56,508.551 M56,508.551"/>
</g>

<g fill="#000000" fill-opacity="1" stroke="#000000" stroke-opacity="1" stroke-width="1" stroke-linecap="square" stroke-linejoin="miter" stroke-miterlimit="2" transform="matrix(1.33331,0,0,1.33331,8,10.6666)"
>
</g>

<g fill="#ffea00" fill-opacity="1" stroke="none" transform="matrix(1.33331,0,0,1.33331,8,10.6666)"
>
<path vector-effect="none" fill-rule="nonzero" d="M152,196.551 L360,196.551 L360,356.551 L152,356.551 L152,196.551 M152,196.551"/>
</g>

<g fill="#000000" fill-opacity="1" stroke="#000000" stroke-opacity="1" stroke-width="1" stroke-linecap="square" stroke-linejoin="miter" stroke-miterlimit="2" transform="matrix(1.33331,0,0,1.33331,8,10.6666)"
>
</g>

<g fill="#c8d1da" fill-opacity="1" stroke="none" transform="matrix(1.33331,0,0,1.33331,8,10.6666)"
>
<path vector-effect="none" fill-rule="nonzero" d="M62.9375,140.551 L33.0625,140.551 L16,268.551 L80,268.551 L62.9375,140.551 M62.9375,140.551"/>
</g>

<g fill="#000000" fill-opacity="1" stroke="#000000" stroke-opacity="1" stroke-width="1" stroke-linecap="square" stroke-linejoin="miter" stroke-miterlimit="2" transform="matrix(1.33331,0,0,1.33331,8,10.6666)"
>
</g>

<g fill="#ffea00" fill-opacity="1" stroke="none" transform="matrix(1.33331,0,0,1.33331,8,10.6666)"
>
<path vector-effect="none" fill-rule="nonzero" d="M16,268.551 L80,268.551 L80,508.551 L16,508.551 L16,268.551 M16,268.551"/>
</g>

<g fill="#000000" fill-opacity="1" stroke="#000000" stroke-opacity="1" stroke-width="1" stroke-linecap="square" stroke-linejoin="miter" stroke-miterlimit="2" transform="matrix(1.33331,0,0,1.33331,8,10.6666)"
>
</g>

<g fill="#50575e" fill-opacity="1" stroke="none" transform="matrix(1.33331,0,0,1.33331,8,10.6666)"
>
<path vector-effect="none" fill-rule="nonzero" d="M88,108.551 C88,130.645 70.0898,148.551 48,148.551 C25.9102,148.551 8,130.645 8,108.551 C8,61.0547 48,12.5508 48,12.5508 C48,12.5508 88,60.8008 88,108.551 M88,108.551"/>
</g>

<g fill="#000000" fill-opacity="1" stroke="#000000" stroke-opacity="1" stroke-width="1" stroke-linecap="square" stroke-linejoin="miter" stroke-miterlimit="2" transform="matrix(1.33331,0,0,1.33331,8,10.6666)"
>
</g>

<g fill="#e4e8ed" fill-opacity="1" stroke="none" transform="matrix(1.33331,0,0,1.33331,8,10.6666)"
>
<path vector-effect="none" fill-rule="nonzero" d="M48,388.551 L416,388.551 L416,500.551 L48,500.551 L48,388.551 M48,388.551"/>
</g>

<g fill="#000000" fill-opacity="1" stroke="#000000" stroke-opacity="1" stroke-width="1" stroke-linecap="square" stroke-linejoin="miter" stroke-miterlimit="2" transform="matrix(1.33331,0,0,1.33331,8,10.6666)"
>
</g>

<g fill="#00c3ff" fill-opacity="1" stroke="none" transform="matrix(1.33331,0,0,1.33331,8,10.6666)"
>
<path vector-effect="none" fill-rule="nonzero" d="M400.641,388.551 L379.441,309.672 L85.1992,388.551 L400.641,388.551 M400.641,388.551"/>
</g>

<g fill="#000000" fill-opacity="1" stroke="#000000" stroke-opacity="1" stroke-width="1" stroke-linecap="square" stroke-linejoin="miter" stroke-miterlimit="2" transform="matrix(1.33331,0,0,1.33331,8,10.6666)"
>
</g>

<g fill="#00c3ff" fill-opacity="1" stroke="none" transform="matrix(1.33331,0,0,1.33331,8,10.6666)"
>
<path vector-effect="none" fill-rule="nonzero" d="M85.1992,388.551 L61.5195,388.551 L318.719,240.07 L361.68,314.473 L85.1992,388.551 M85.1992,388.551"/>
</g>

<g fill="#000000" fill-opacity="1" stroke="#000000" stroke-opacity="1" stroke-width="1" stroke-linecap="square" stroke-linejoin="miter" stroke-miterlimit="2" transform="matrix(1.33331,0,0,1.33331,8,10.6666)"
>
</g>

<g fill="#00c3ff" fill-opacity="1" stroke="none" transform="matrix(1.33331,0,0,1.33331,8,10.6666)"
>
<path vector-effect="none" fill-rule="nonzero" d="M136,444.551 C136,457.809 125.254,468.551 112,468.551 C98.7461,468.551 88,457.809 88,444.551 C88,431.297 98.7461,420.551 112,420.551 C125.254,420.551 136,431.297 136,444.551 M136,444.551"/>
</g>

<g fill="#000000" fill-opacity="1" stroke="#000000" stroke-opacity="1" stroke-width="1" stroke-linecap="square" stroke-linejoin="miter" stroke-miterlimit="2" transform="matrix(1.33331,0,0,1.33331,8,10.6666)"
>
</g>

<g fill="#000000" fill-opacity="1" stroke="#000000" stroke-opacity="1" stroke-width="1" stroke-linecap="square" stroke-linejoin="miter" stroke-miterlimit="2" transform="matrix(1.33331,0,0,1.33331,8,10.6666)"
>
</g>

<g fill="#9ccc65" fill-opacity="1" stroke="none" transform="matrix(1.33331,0,0,1.33331,8,10.6666)"
>
<path vector-effect="none" fill-rule="nonzero" d="M176,388.551 L256,388.551 L256,500.551 L176,500.551 L176,388.551 M176,388.551"/>
</g>

<g fill="#000000" fill-opacity="1" stroke="#000000" stroke-opacity="1" stroke-width="1" stroke-linecap="square" stroke-linejoin="miter" stroke-miterlimit="2" transform="matrix(1.33331,0,0,1.33331,8,10.6666)"
>
</g>

<g fill="#ffea00" fill-opacity="1" stroke="none" transform="matrix(1.33331,0,0,1.33331,8,10.6666)"
>
<path vector-effect="none" fill-rule="nonzero" d="M256,388.551 L336,388.551 L336,500.551 L256,500.551 L256,388.551 M256,388.551"/>
</g>

<g fill="#000000" fill-opacity="1" stroke="#000000" stroke-opacity="1" stroke-width="1" stroke-linecap="square" stroke-linejoin="miter" stroke-miterlimit="2" transform="matrix(1.33331,0,0,1.33331,8,10.6666)"
>
</g>

<g fill="#ff8a80" fill-opacity="1" stroke="none" transform="matrix(1.33331,0,0,1.33331,8,10.6666)"
>
<path vector-effect="none" fill-rule="nonzero" d="M336,388.551 L416,388.551 L416,500.551 L336,500.551 L336,388.551 M336,388.551"/>
</g>

<g fill="#000000" fill-opacity="1" stroke="#000000" stroke-opacity="1" stroke-width="1" stroke-linecap="square" stroke-linejoin="miter" stroke-miterlimit="2" transform="matrix(1.33331,0,0,1.33331,8,10.6666)"
>
</g>

<g fill="#000000" fill-opacity="1" stroke="none" transform="matrix(1.33331,0,0,1.33331,8,10.6666)"
>
<path vector-effect="none" fill-rule="nonzero" d="M112,476.551 C129.672,476.551 144,462.227 144,444.551 C144,426.879 129.672,412.551 112,412.551 C94.3281,412.551 80,426.879 80,444.551 C80,462.227 94.3281,476.551 112,476.551 M112,428.551 C120.836,428.551 128,435.715 128,444.551 C128,453.387 120.836,460.551 112,460.551 C103.164,460.551 96,453.387 96,444.551 C96,435.715 103.164,428.551 112,428.551 M112,428.551"/>
</g>

<g fill="#000000" fill-opacity="1" stroke="#000000" stroke-opacity="1" stroke-width="1" stroke-linecap="square" stroke-linejoin="miter" stroke-miterlimit="2" transform="matrix(1.33331,0,0,1.33331,8,10.6666)"
>
</g>

<g fill="#000000" fill-opacity="1" stroke="none" transform="matrix(1.33331,0,0,1.33331,8,10.6666)"
>
<path vector-effect="none" fill-rule="nonzero" d="M464,492.551 L464,200.176 L256,67.0547 L76.5039,181.93 L72.2461,149.93 C81.2891,144.617 88.3555,136.508 92.375,126.824 L256,22.0547 L499.688,178.008 L508.312,164.551 L256,3.05469 L95.8555,105.574 C94.3203,56.5508 55.832,9.46484 54.1602,7.44922 L48,-4.76837e-07 L41.8477,7.46484 C40.1211,9.53516 0,58.7539 0,108.551 C0.0273438,125.57 9.0625,141.305 23.7539,149.902 L8.07031,267.504 L8,508.551 L24,508.551 L24,276.551 L72,276.551 L72,373.266 L59.375,380.551 L40,380.551 L40,508.551 L424,508.551 L424,380.551 L406.777,380.551 L385.09,299.879 L368,304.457 L368,188.551 L144,188.551 L144,331.695 L88,364.031 L88,268.551 L78.8242,199.441 L256,86.0469 L448,208.93 L448,508.551 L512,508.551 L512,492.551 L464,492.551 M25.1367,260.551 L39.1211,155.695 C44.9844,156.836 51.0156,156.836 56.8789,155.695 L70.8633,260.551 L25.1367,260.551 M56,139.414 L56,108.551 L40,108.551 L40,139.414 C25.9141,135.777 16.0547,123.098 16,108.551 C16,75.5938 37.207,41.2461 48,25.9023 C58.8164,41.1992 80,75.4258 80,108.551 C79.9453,123.098 70.0859,135.777 56,139.414 M248,492.551 L184,492.551 L184,396.551 L248,396.551 L248,492.551 M328,492.551 L264,492.551 L264,396.551 L328,396.551 L328,492.551 M408,396.551 L408,492.551 L344,492.551 L344,396.551 L408,396.551 M373.793,319.473 L390.207,380.551 L145.938,380.551 L373.793,319.473 M264,204.551 L352,204.551 L352,281.703 L321.648,229.145 L264,262.426 L264,204.551 M160,204.551 L248,204.551 L248,268.551 L160,268.551 L160,204.551 M160,284.551 L225.664,284.551 L160,322.465 L160,284.551 M315.793,251 L349.52,309.398 L97.6562,376.938 L315.793,251 M168,396.551 L168,492.551 L56,492.551 L56,396.551 L168,396.551 M168,396.551"/>
</g>

<g fill="#000000" fill-opacity="1" stroke="#000000" stroke-opacity="1" stroke-width="1" stroke-linecap="square" stroke-linejoin="miter" stroke-miterlimit="2" transform="matrix(1.33331,0,0,1.33331,8,10.6666)"
>
</g>

<g fill="#000000" fill-opacity="1" stroke="#000000" stroke-opacity="1" stroke-width="1" stroke-linecap="square" stroke-linejoin="miter" stroke-miterlimit="2" transform="matrix(1.33331,0,0,1.33331,8,10.6666)"
>
</g>

<g fill="#000000" fill-opacity="1" stroke="#000000" stroke-opacity="1" stroke-width="1" stroke-linecap="square" stroke-linejoin="miter" stroke-miterlimit="2" transform="matrix(1,0,0,1,0,0)"
>
</g>

<g fill="#000000" fill-opacity="1" stroke="#000000" stroke-opacity="1" stroke-width="1" stroke-linecap="square" stroke-linejoin="miter" stroke-miterlimit="2" transform="matrix(1,0,0,1,0,0)"
>
</g>

<g fill="#000000" fill-opacity="1" stroke="#000000" stroke-opacity="1" stroke-width="1" stroke-linecap="square" stroke-linejoin="miter" stroke-miterlimit="2" transform="matrix(1,0,0,1,0,0)"
>
</g>

<g fill="#000000" fill-opacity="1" stroke="#000000" stroke-opacity="1" stroke-width="1" stroke-linecap="square" stroke-linejoin="miter" stroke-miterlimit="2" transform="matrix(1,0,0,1,0,0)"
>
</g>

<g fill="#000000" fill-opacity="1" stroke="#000000" stroke-opacity="1" stroke-width="1" stroke-linecap="square" stroke-linejoin="miter" stroke-miterlimit="2" transform="matrix(1.33331,0,0,1.33331,8,10.6666)"
>
</g>

<g fill="#000000" fill-opacity="1" stroke="#000000" stroke-opacity="1" stroke-width="1" stroke-linecap="square" stroke-linejoin="miter" stroke-miterlimit="2" transform="matrix(1.33331,0,0,1.33331,8,10.6666)"
>
</g>

<g fill="#000000" fill-opacity="1" stroke="#000000" stroke-opacity="1" stroke-width="1" stroke-linecap="square" stroke-linejoin="miter" stroke-miterlimit="2" transform="matrix(1.33331,0,0,1.33331,8,10.6666)"
>
</g>

<g fill="#000000" fill-opacity="1" stroke="#000000" stroke-opacity="1" stroke-width="1" stroke-linecap="square" stroke-linejoin="miter" stroke-miterlimit="2" transform="matrix(1,0,0,1,0,0)"
>
</g>

<g fill="#000000" fill-opacity="1" stroke="#000000" stroke-opacity="1" stroke-width="1" stroke-linecap="square" stroke-linejoin="miter" stroke-miterlimit="2" transform="matrix(1,0,0,1,0,0)"
>
</g>

<g fill="#000000" fill-opacity="1" stroke="#000000" stroke-opacity="1" stroke-width="1" stroke-linecap="square" stroke-linejoin="miter" stroke-miterlimit="2" transform="matrix(1,0,0,1,0,0)"
>
</g>

<g fill="#000000" fill-opacity="1" stroke="#000000" stroke-opacity="1" stroke-width="1" stroke-linecap="square" stroke-linejoin="miter" stroke-miterlimit="2" transform="matrix(1,0,0,1,0,0)"
>
</g>

<g fill="#000000" fill-opacity="1" stroke="#000000" stroke-opacity="1" stroke-width="1" stroke-linecap="square" stroke-linejoin="miter" stroke-miterlimit="2" transform="matrix(1,0,0,1,0,0)"
>
</g>

<g fill="#000000" fill-opacity="1" stroke="#000000" stroke-opacity="1" stroke-width="1" stroke-linecap="square" stroke-linejoin="miter" stroke-miterlimit="2" transform="matrix(1,0,0,1,0,0)"
>
</g>
</g>
</svg>
