<?xml version="1.0" encoding="UTF-8" standalone="no"?>
<svg width="270.933mm" height="184.415mm"
 xmlns="http://www.w3.org/2000/svg" xmlns:xlink="http://www.w3.org/1999/xlink"  version="1.2" baseProfile="tiny">
<desc>Created by EvoPdf</desc>
<defs>
</defs>
<g fill="none" stroke="black" stroke-width="1" fill-rule="evenodd" stroke-linecap="square" stroke-linejoin="bevel" >

<g fill="#000000" fill-opacity="1" stroke="#000000" stroke-opacity="1" stroke-width="1" stroke-linecap="square" stroke-linejoin="miter" stroke-miterlimit="2" transform="matrix(1,0,0,1,0,0)"
>
</g>

<g fill="#000000" fill-opacity="1" stroke="#000000" stroke-opacity="1" stroke-width="1" stroke-linecap="square" stroke-linejoin="miter" stroke-miterlimit="2" transform="matrix(1,0,0,1,0,0)"
>
</g>

<g fill="#000000" fill-opacity="1" stroke="#000000" stroke-opacity="1" stroke-width="1" stroke-linecap="square" stroke-linejoin="miter" stroke-miterlimit="2" transform="matrix(1,0,0,1,0,0)"
>
</g>

<g fill="#000000" fill-opacity="1" stroke="#000000" stroke-opacity="1" stroke-width="1" stroke-linecap="square" stroke-linejoin="miter" stroke-miterlimit="2" transform="matrix(1,0,0,1,0,0)"
>
</g>

<g fill="#000000" fill-opacity="1" stroke="#000000" stroke-opacity="1" stroke-width="1" stroke-linecap="square" stroke-linejoin="miter" stroke-miterlimit="2" transform="matrix(1.33072,0,0,1.33072,8.66479,8)"
>
</g>

<g fill="#91e8ed" fill-opacity="1" stroke="none" transform="matrix(1.33072,0,0,1.33072,8.66479,8)"
>
<path vector-effect="none" fill-rule="nonzero" d="M104.594,472 L408.594,472 L408.594,40 L176.594,40 L104.594,112 L104.594,472 M104.594,472"/>
</g>

<g fill="#000000" fill-opacity="1" stroke="#000000" stroke-opacity="1" stroke-width="1" stroke-linecap="square" stroke-linejoin="miter" stroke-miterlimit="2" transform="matrix(1.33072,0,0,1.33072,8.66479,8)"
>
</g>

<g fill="#ff8a80" fill-opacity="1" stroke="none" transform="matrix(1.33072,0,0,1.33072,8.66479,8)"
>
<path vector-effect="none" fill-rule="nonzero" d="M256.594,176 C256.594,189.254 245.848,200 232.594,200 C219.34,200 208.594,189.254 208.594,176 C208.594,162.746 219.34,152 232.594,152 C245.848,152 256.594,162.746 256.594,176 M256.594,176"/>
</g>

<g fill="#000000" fill-opacity="1" stroke="#000000" stroke-opacity="1" stroke-width="1" stroke-linecap="square" stroke-linejoin="miter" stroke-miterlimit="2" transform="matrix(1.33072,0,0,1.33072,8.66479,8)"
>
</g>

<g fill="#9ccc65" fill-opacity="1" stroke="none" transform="matrix(1.33072,0,0,1.33072,8.66479,8)"
>
<path vector-effect="none" fill-rule="nonzero" d="M161.738,304 L216.594,240 L248.594,272 L248.594,304 L161.738,304 M161.738,304"/>
</g>

<g fill="#000000" fill-opacity="1" stroke="#000000" stroke-opacity="1" stroke-width="1" stroke-linecap="square" stroke-linejoin="miter" stroke-miterlimit="2" transform="matrix(1.33072,0,0,1.33072,8.66479,8)"
>
</g>

<g fill="#9ccc65" fill-opacity="1" stroke="none" transform="matrix(1.33072,0,0,1.33072,8.66479,8)"
>
<path vector-effect="none" fill-rule="nonzero" d="M224.594,304 L296.594,200 L360.594,304 L224.594,304 M224.594,304"/>
</g>

<g fill="#000000" fill-opacity="1" stroke="#000000" stroke-opacity="1" stroke-width="1" stroke-linecap="square" stroke-linejoin="miter" stroke-miterlimit="2" transform="matrix(1.33072,0,0,1.33072,8.66479,8)"
>
</g>

<g fill="#ffea00" fill-opacity="1" stroke="none" transform="matrix(1.33072,0,0,1.33072,8.66479,8)"
>
<path vector-effect="none" fill-rule="nonzero" d="M176.594,40 L176.594,112 L104.594,112 L176.594,40 M176.594,40"/>
</g>

<g fill="#000000" fill-opacity="1" stroke="#000000" stroke-opacity="1" stroke-width="1" stroke-linecap="square" stroke-linejoin="miter" stroke-miterlimit="2" transform="matrix(1.33072,0,0,1.33072,8.66479,8)"
>
</g>

<g fill="#00c3ff" fill-opacity="1" stroke="none" transform="matrix(1.33072,0,0,1.33072,8.66479,8)"
>
<path vector-effect="none" fill-rule="nonzero" d="M200.594,408 C200.594,461.02 157.613,504 104.594,504 C51.5742,504 8.59375,461.02 8.59375,408 C8.59375,354.98 51.5742,312 104.594,312 C157.613,312 200.594,354.98 200.594,408 M200.594,408"/>
</g>

<g fill="#000000" fill-opacity="1" stroke="#000000" stroke-opacity="1" stroke-width="1" stroke-linecap="square" stroke-linejoin="miter" stroke-miterlimit="2" transform="matrix(1.33072,0,0,1.33072,8.66479,8)"
>
</g>

<g fill="#ffea00" fill-opacity="1" stroke="none" transform="matrix(1.33072,0,0,1.33072,8.66479,8)"
>
<path vector-effect="none" fill-rule="nonzero" d="M11.9297,432.742 C20.8008,465.898 46.6953,491.793 79.8477,500.664 L124.832,455.68 L144.594,368 L56.9141,387.762 L11.9297,432.742 M11.9297,432.742"/>
</g>

<g fill="#000000" fill-opacity="1" stroke="#000000" stroke-opacity="1" stroke-width="1" stroke-linecap="square" stroke-linejoin="miter" stroke-miterlimit="2" transform="matrix(1.33072,0,0,1.33072,8.66479,8)"
>
</g>

<g fill="#50575e" fill-opacity="1" stroke="none" transform="matrix(1.33072,0,0,1.33072,8.66479,8)"
>
<path vector-effect="none" fill-rule="nonzero" d="M144.594,368 L89.1953,380.488 L132.105,423.398 L144.594,368 M144.594,368"/>
</g>

<g fill="#000000" fill-opacity="1" stroke="#000000" stroke-opacity="1" stroke-width="1" stroke-linecap="square" stroke-linejoin="miter" stroke-miterlimit="2" transform="matrix(1.33072,0,0,1.33072,8.66479,8)"
>
</g>

<g fill="#ffdecf" fill-opacity="1" stroke="none" transform="matrix(1.33072,0,0,1.33072,8.66479,8)"
>
<path vector-effect="none" fill-rule="nonzero" d="M88.0273,424.566 L90.8477,444.367 L124.824,455.688 L124.832,455.68 L132.105,423.398 L89.1953,380.488 L56.9141,387.762 L56.9062,387.77 L68.2266,421.742 L88.0273,424.566 M88.0273,424.566"/>
</g>

<g fill="#000000" fill-opacity="1" stroke="#000000" stroke-opacity="1" stroke-width="1" stroke-linecap="square" stroke-linejoin="miter" stroke-miterlimit="2" transform="matrix(1.33072,0,0,1.33072,8.66479,8)"
>
</g>

<g fill="#ffffff" fill-opacity="1" stroke="none" transform="matrix(1.33072,0,0,1.33072,8.66479,8)"
>
<path vector-effect="none" fill-rule="nonzero" d="M49.0352,486.199 L90.8477,444.367 L88.0273,424.566 L68.2266,421.742 L26.3945,463.559 C32.6289,472.312 40.2812,479.965 49.0352,486.199 M49.0352,486.199"/>
</g>

<g fill="#000000" fill-opacity="1" stroke="#000000" stroke-opacity="1" stroke-width="1" stroke-linecap="square" stroke-linejoin="miter" stroke-miterlimit="2" transform="matrix(1.33072,0,0,1.33072,8.66479,8)"
>
</g>

<g fill="#00c3ff" fill-opacity="1" stroke="none" transform="matrix(1.33072,0,0,1.33072,8.66479,8)"
>
<path vector-effect="none" fill-rule="nonzero" d="M504.594,104 C504.594,157.02 461.613,200 408.594,200 C355.574,200 312.594,157.02 312.594,104 C312.594,50.9805 355.574,8 408.594,8 C461.613,8 504.594,50.9805 504.594,104 M504.594,104"/>
</g>

<g fill="#000000" fill-opacity="1" stroke="#000000" stroke-opacity="1" stroke-width="1" stroke-linecap="square" stroke-linejoin="miter" stroke-miterlimit="2" transform="matrix(1.33072,0,0,1.33072,8.66479,8)"
>
</g>

<g fill="#ffea00" fill-opacity="1" stroke="none" transform="matrix(1.33072,0,0,1.33072,8.66479,8)"
>
<path vector-effect="none" fill-rule="nonzero" d="M501.258,79.2578 C492.387,46.1016 466.492,20.207 433.336,11.3359 L388.355,56.3203 L368.594,144 L456.273,124.238 L501.258,79.2578 M501.258,79.2578"/>
</g>

<g fill="#000000" fill-opacity="1" stroke="#000000" stroke-opacity="1" stroke-width="1" stroke-linecap="square" stroke-linejoin="miter" stroke-miterlimit="2" transform="matrix(1.33072,0,0,1.33072,8.66479,8)"
>
</g>

<g fill="#50575e" fill-opacity="1" stroke="none" transform="matrix(1.33072,0,0,1.33072,8.66479,8)"
>
<path vector-effect="none" fill-rule="nonzero" d="M368.594,144 L423.992,131.512 L381.082,88.6016 L368.594,144 M368.594,144"/>
</g>

<g fill="#000000" fill-opacity="1" stroke="#000000" stroke-opacity="1" stroke-width="1" stroke-linecap="square" stroke-linejoin="miter" stroke-miterlimit="2" transform="matrix(1.33072,0,0,1.33072,8.66479,8)"
>
</g>

<g fill="#ffdecf" fill-opacity="1" stroke="none" transform="matrix(1.33072,0,0,1.33072,8.66479,8)"
>
<path vector-effect="none" fill-rule="nonzero" d="M425.16,87.4336 L422.336,67.6328 L388.363,56.3125 L388.355,56.3203 L381.082,88.6016 L423.992,131.512 L456.273,124.238 L456.281,124.23 L444.961,90.2578 L425.16,87.4336 M425.16,87.4336"/>
</g>

<g fill="#000000" fill-opacity="1" stroke="#000000" stroke-opacity="1" stroke-width="1" stroke-linecap="square" stroke-linejoin="miter" stroke-miterlimit="2" transform="matrix(1.33072,0,0,1.33072,8.66479,8)"
>
</g>

<g fill="#ffffff" fill-opacity="1" stroke="none" transform="matrix(1.33072,0,0,1.33072,8.66479,8)"
>
<path vector-effect="none" fill-rule="nonzero" d="M464.152,25.8008 L422.336,67.6328 L425.16,87.4336 L444.961,90.2578 L486.793,48.4414 C480.559,39.6875 472.906,32.0352 464.152,25.8008 M464.152,25.8008"/>
</g>

<g fill="#000000" fill-opacity="1" stroke="#000000" stroke-opacity="1" stroke-width="1" stroke-linecap="square" stroke-linejoin="miter" stroke-miterlimit="2" transform="matrix(1.33072,0,0,1.33072,8.66479,8)"
>
</g>

<g fill="#ffffff" fill-opacity="1" stroke="none" transform="matrix(1.33072,0,0,1.33072,8.66479,8)"
>
<path vector-effect="none" fill-rule="nonzero" d="M272.594,328 L368.594,328 L368.594,344 L272.594,344 L272.594,328 M272.594,328"/>
</g>

<g fill="#000000" fill-opacity="1" stroke="#000000" stroke-opacity="1" stroke-width="1" stroke-linecap="square" stroke-linejoin="miter" stroke-miterlimit="2" transform="matrix(1.33072,0,0,1.33072,8.66479,8)"
>
</g>

<g fill="#ffffff" fill-opacity="1" stroke="none" transform="matrix(1.33072,0,0,1.33072,8.66479,8)"
>
<path vector-effect="none" fill-rule="nonzero" d="M320.594,360 L368.594,360 L368.594,376 L320.594,376 L320.594,360 M320.594,360"/>
</g>

<g fill="#000000" fill-opacity="1" stroke="#000000" stroke-opacity="1" stroke-width="1" stroke-linecap="square" stroke-linejoin="miter" stroke-miterlimit="2" transform="matrix(1.33072,0,0,1.33072,8.66479,8)"
>
</g>

<g fill="#ffffff" fill-opacity="1" stroke="none" transform="matrix(1.33072,0,0,1.33072,8.66479,8)"
>
<path vector-effect="none" fill-rule="nonzero" d="M384.594,448 L352.594,448 L352.594,432 L368.594,432 L368.594,416 L384.594,416 L384.594,448 M384.594,448"/>
</g>

<g fill="#000000" fill-opacity="1" stroke="#000000" stroke-opacity="1" stroke-width="1" stroke-linecap="square" stroke-linejoin="miter" stroke-miterlimit="2" transform="matrix(1.33072,0,0,1.33072,8.66479,8)"
>
</g>

<g fill="#000000" fill-opacity="1" stroke="#000000" stroke-opacity="1" stroke-width="1" stroke-linecap="square" stroke-linejoin="miter" stroke-miterlimit="2" transform="matrix(1.33072,0,0,1.33072,8.66479,8)"
>
</g>

<g fill="#000000" fill-opacity="1" stroke="none" transform="matrix(1.33072,0,0,1.33072,8.66479,8)"
>
<path vector-effect="none" fill-rule="nonzero" d="M408.594,0 C380.316,0.00390625 353.27,11.5664 333.723,32 L173.281,32 L96.5938,108.688 L96.5938,304.406 C50.3828,307.906 12.0703,341.578 2.66406,386.953 C-6.74219,432.332 15.0234,478.457 56.0352,500.039 C97.0469,521.621 147.391,513.449 179.465,480 L416.594,480 L416.594,207.594 C472.262,203.27 514.57,155.742 512.422,99.9492 C510.27,44.1562 464.43,0.0273438 408.594,0 M485.395,61.1523 C488.207,66.1641 490.516,71.4453 492.289,76.9102 L459.793,109.414 L454.129,92.4336 L485.395,61.1523 M476.195,47.7344 L442.152,81.7773 L432.242,80.3594 L430.824,70.4492 L464.867,36.4062 C468.973,39.8359 472.758,43.6289 476.184,47.7344 L476.195,47.7344 M389.848,86.0625 L394.195,66.6953 L415.09,73.6641 L418.074,94.5039 L438.875,97.4805 L445.84,118.375 L426.473,122.742 L389.848,86.0625 M408.066,126.902 L379.176,133.414 L385.691,104.527 L408.066,126.902 M451.441,27.1992 L420.16,58.4805 L403.176,52.8008 L435.68,20.2969 C441.148,22.0703 446.43,24.3828 451.441,27.1992 M168.594,59.3125 L168.594,104 L123.906,104 L168.594,59.3125 M27.793,450.848 C24.9805,445.836 22.6719,440.555 20.8984,435.09 L53.3945,402.586 L59.0586,419.566 L27.793,450.848 M36.9922,464.266 L71.0352,430.223 L80.9453,431.641 L82.3633,441.551 L48.3281,475.594 C44.2227,472.164 40.4297,468.371 37,464.266 L36.9922,464.266 M123.328,425.938 L118.992,445.305 L98.0977,438.336 L95.1211,417.496 L74.2812,414.52 L67.2891,393.602 L86.6562,389.23 L123.328,425.938 M105.113,385.137 L134,378.625 L127.488,407.512 L105.113,385.137 M61.7461,484.801 L93.0273,453.527 L110.008,459.191 L77.5039,491.688 C72.0391,489.918 66.7578,487.609 61.7461,484.801 M104.594,496 C101.777,496 98.9922,495.84 96.25,495.574 L132.121,459.695 L155.176,357.414 L52.8984,380.473 L17.0156,416.344 C16.7539,413.602 16.5938,410.816 16.5938,408 C16.5938,359.398 55.9922,320 104.594,320 C153.195,320 192.594,359.398 192.594,408 C192.594,456.602 153.195,496 104.594,496 M400.594,464 L192.09,464 C211.883,433.246 214.02,394.34 197.715,361.602 C181.406,328.867 149.066,307.133 112.594,304.406 L112.594,120 L184.594,120 L184.594,48 L321.098,48 C301.301,78.7539 299.164,117.66 315.473,150.398 C331.781,183.133 364.121,204.867 400.594,207.594 L400.594,464 M408.594,192 C359.992,192 320.594,152.602 320.594,104 C320.594,55.3984 359.992,16 408.594,16 C411.41,16 414.195,16.1602 416.938,16.4258 L381.066,52.3047 L358.008,154.586 L460.289,131.527 L496.168,95.6562 C496.434,98.3984 496.594,101.184 496.594,104 C496.535,152.578 457.172,191.941 408.594,192 M408.594,192"/>
</g>

<g fill="#000000" fill-opacity="1" stroke="#000000" stroke-opacity="1" stroke-width="1" stroke-linecap="square" stroke-linejoin="miter" stroke-miterlimit="2" transform="matrix(1.33072,0,0,1.33072,8.66479,8)"
>
</g>

<g fill="#000000" fill-opacity="1" stroke="none" transform="matrix(1.33072,0,0,1.33072,8.66479,8)"
>
<path vector-effect="none" fill-rule="nonzero" d="M232.594,208 C250.266,208 264.594,193.672 264.594,176 C264.594,158.328 250.266,144 232.594,144 C214.922,144 200.594,158.328 200.594,176 C200.594,193.672 214.922,208 232.594,208 M232.594,160 C241.43,160 248.594,167.164 248.594,176 C248.594,184.836 241.43,192 232.594,192 C223.758,192 216.594,184.836 216.594,176 C216.594,167.164 223.758,160 232.594,160 M232.594,160"/>
</g>

<g fill="#000000" fill-opacity="1" stroke="#000000" stroke-opacity="1" stroke-width="1" stroke-linecap="square" stroke-linejoin="miter" stroke-miterlimit="2" transform="matrix(1.33072,0,0,1.33072,8.66479,8)"
>
</g>

<g fill="#000000" fill-opacity="1" stroke="none" transform="matrix(1.33072,0,0,1.33072,8.66479,8)"
>
<path vector-effect="none" fill-rule="nonzero" d="M246.379,258.473 L216.137,228.23 L162.523,290.793 L174.664,301.207 L217.051,251.77 L237.121,271.84 L218.016,299.449 L231.168,308.551 L296.203,214.625 L353.777,308.191 L367.41,299.809 L296.984,185.375 L246.379,258.473 M246.379,258.473"/>
</g>

<g fill="#000000" fill-opacity="1" stroke="#000000" stroke-opacity="1" stroke-width="1" stroke-linecap="square" stroke-linejoin="miter" stroke-miterlimit="2" transform="matrix(1.33072,0,0,1.33072,8.66479,8)"
>
</g>

<g fill="#000000" fill-opacity="1" stroke="#000000" stroke-opacity="1" stroke-width="1" stroke-linecap="square" stroke-linejoin="miter" stroke-miterlimit="2" transform="matrix(1.33072,0,0,1.33072,8.66479,8)"
>
</g>

<g fill="#000000" fill-opacity="1" stroke="#000000" stroke-opacity="1" stroke-width="1" stroke-linecap="square" stroke-linejoin="miter" stroke-miterlimit="2" transform="matrix(1,0,0,1,0,0)"
>
</g>

<g fill="#000000" fill-opacity="1" stroke="#000000" stroke-opacity="1" stroke-width="1" stroke-linecap="square" stroke-linejoin="miter" stroke-miterlimit="2" transform="matrix(1,0,0,1,0,0)"
>
</g>

<g fill="#000000" fill-opacity="1" stroke="#000000" stroke-opacity="1" stroke-width="1" stroke-linecap="square" stroke-linejoin="miter" stroke-miterlimit="2" transform="matrix(1,0,0,1,0,0)"
>
</g>

<g fill="#000000" fill-opacity="1" stroke="#000000" stroke-opacity="1" stroke-width="1" stroke-linecap="square" stroke-linejoin="miter" stroke-miterlimit="2" transform="matrix(1,0,0,1,0,0)"
>
</g>

<g fill="#000000" fill-opacity="1" stroke="#000000" stroke-opacity="1" stroke-width="1" stroke-linecap="square" stroke-linejoin="miter" stroke-miterlimit="2" transform="matrix(1.33072,0,0,1.33072,8.66479,8)"
>
</g>

<g fill="#000000" fill-opacity="1" stroke="#000000" stroke-opacity="1" stroke-width="1" stroke-linecap="square" stroke-linejoin="miter" stroke-miterlimit="2" transform="matrix(1.33072,0,0,1.33072,8.66479,8)"
>
</g>

<g fill="#000000" fill-opacity="1" stroke="#000000" stroke-opacity="1" stroke-width="1" stroke-linecap="square" stroke-linejoin="miter" stroke-miterlimit="2" transform="matrix(1.33072,0,0,1.33072,8.66479,8)"
>
</g>

<g fill="#000000" fill-opacity="1" stroke="#000000" stroke-opacity="1" stroke-width="1" stroke-linecap="square" stroke-linejoin="miter" stroke-miterlimit="2" transform="matrix(1,0,0,1,0,0)"
>
</g>

<g fill="#000000" fill-opacity="1" stroke="#000000" stroke-opacity="1" stroke-width="1" stroke-linecap="square" stroke-linejoin="miter" stroke-miterlimit="2" transform="matrix(1,0,0,1,0,0)"
>
</g>

<g fill="#000000" fill-opacity="1" stroke="#000000" stroke-opacity="1" stroke-width="1" stroke-linecap="square" stroke-linejoin="miter" stroke-miterlimit="2" transform="matrix(1,0,0,1,0,0)"
>
</g>

<g fill="#000000" fill-opacity="1" stroke="#000000" stroke-opacity="1" stroke-width="1" stroke-linecap="square" stroke-linejoin="miter" stroke-miterlimit="2" transform="matrix(1,0,0,1,0,0)"
>
</g>

<g fill="#000000" fill-opacity="1" stroke="#000000" stroke-opacity="1" stroke-width="1" stroke-linecap="square" stroke-linejoin="miter" stroke-miterlimit="2" transform="matrix(1,0,0,1,0,0)"
>
</g>

<g fill="#000000" fill-opacity="1" stroke="#000000" stroke-opacity="1" stroke-width="1" stroke-linecap="square" stroke-linejoin="miter" stroke-miterlimit="2" transform="matrix(1,0,0,1,0,0)"
>
</g>
</g>
</svg>
